<svg xmlns="http://www.w3.org/2000/svg" width="435.107" height="514.947" viewBox="0 0 326.33 386.21" class="displayed_equation">
  <defs>
    <clipPath id="svg369186523031tikz_00001a">
      <path d="M 15.734375 34.707031 L 310.597656 34.707031 L 310.597656 370.472656 L 15.734375 370.472656 Z M 15.734375 34.707031" />
    </clipPath>
    <clipPath id="svg369186523031tikz_00001b">
      <path d="M 144 328 L 175 328 L 175 370.472656 L 144 370.472656 Z M 144 328" />
    </clipPath>
  </defs>
  <g clip-path="url(#svg369186523031tikz_00001a)">
    <path d="M 3031.601563 1350.615625 C 3008.710938 1432.959375 2938.59375 1596.084375 2875.390625 1653.467187 C 2796.210938 1725.185937 2581.054688 1785.732812 2476.953125 1810.69375 C 2288.359375 1855.85 2195.351563 1878.154687 2119.882813 1976.435937 C 2114.0625 1983.896875 2108.203125 1993.975 2101.835938 2006.201562 C 2101.289063 2007.25625 2100.78125 2008.310937 2100.234375 2008.857812 C 2075.820313 2056.709375 2050.820313 2133.19375 2039.6875 2197.490625 C 2031.171875 2260.69375 2031.71875 2321.279687 2039.140625 2364.2875 C 2064.648438 2511.982812 2267.070313 2632.56875 2297.34375 2906.201562 C 2310.117188 3022.021875 2286.210938 3162.295312 2222.421875 3253.115625 C 2140.078125 3369.990625 1980.195313 3489.014062 1842.070313 3503.896875 C 1649.726563 3525.146875 1250.742188 3516.63125 1100.390625 3398.154687 C 1074.375 3377.451562 1016.445313 3312.1 1012.1875 3260.029687 C 1009.023438 3215.928125 1049.921875 3185.654687 1043.007813 3158.545312 C 1033.4375 3120.303125 1017.5 3083.6625 1012.734375 3044.873437 C 1006.875 2995.459375 1014.335938 2897.178125 1012.1875 2860.5375 C 1010.625 2838.19375 1001.5625 2788.81875 989.882813 2770.185937 C 956.40625 2714.9125 877.773438 2638.428125 879.375 2584.75625 C 879.882813 2567.764062 900.078125 2551.826562 914.453125 2546.514062 C 933.554688 2539.6 965.976563 2549.170312 971.289063 2522.1 C 973.4375 2510.38125 968.632813 2498.701562 961.171875 2489.678125 C 954.804688 2482.25625 946.328125 2476.396875 942.070313 2467.88125 C 935.15625 2454.6 939.921875 2438.6625 948.4375 2426.475 C 952.148438 2421.1625 956.953125 2416.357812 962.265625 2413.701562 C 975.546875 2407.334375 990.9375 2411.592187 1005.273438 2413.19375 C 1017.5 2414.75625 1030.78125 2414.248437 1043.007813 2411.045312 C 1047.265625 2409.990625 1074.882813 2401.475 1071.171875 2394.6 C 1067.96875 2388.740625 984.570313 2382.373437 978.203125 2379.717187 C 958.515625 2370.69375 960.664063 2332.959375 980.3125 2332.959375 C 990.9375 2332.959375 1010.625 2316.475 1013.242188 2306.396875 C 1018.046875 2288.35 982.96875 2278.232812 986.679688 2235.732812 C 990.9375 2184.717187 1029.726563 2155.5375 1050.976563 2149.678125 C 1148.75 2122.56875 1239.0625 2127.334375 1294.296875 2099.209375 C 1309.179688 2091.748437 1330.429688 2080.576562 1333.085938 2059.873437 C 1317.65625 1992.920312 1307.578125 1993.467187 1272.5 1976.982812 C 1115.273438 1901.553125 988.828125 1832.490625 840.585938 1811.748437 C 739.648438 1797.959375 522.890625 1771.904687 447.96875 1702.842187 C 348.085938 1610.420312 291.757813 1324.053125 260.429688 1191.748437 C 230.15625 1064.795312 187.109375 661.00625 158.945313 413.975 L 158.945313 160.029687 L 616.914063 160.029687 C 628.59375 215.810937 638.164063 272.139062 642.929688 326.826562 C 656.210938 494.170312 679.0625 661.553125 714.648438 663.6625 C 730.585938 664.717187 715.195313 414.482812 714.140625 159.482812 L 2548.671875 159.482812 C 2556.09375 415.029687 2540.703125 643.467187 2564.609375 656.748437 C 2599.140625 675.889062 2629.921875 551.553125 2659.140625 353.389062 C 2669.257813 284.326562 2681.484375 219.014062 2694.21875 159.482812 L 3102.265625 159.482812 L 3102.265625 1047.25625 C 3082.617188 1165.185937 3054.414063 1267.178125 3031.601563 1350.615625 Z M 3031.601563 1350.615625" transform="matrix(.1 0 0 -.1 0 386.21)" fill="#ffd6bf" stroke-width="5.313" stroke="#000" stroke-miterlimit="10" />
  </g>
  <path d="M 1493.007813 1791.045312 C 1478.632813 1872.842187 1463.242188 1954.13125 1446.757813 2035.967187 C 1441.445313 2063.584375 1434.53125 2093.310937 1413.28125 2111.94375 C 1390.976563 2131.592187 1359.101563 2133.19375 1329.375 2134.795312 C 1248.085938 2138.50625 1166.796875 2145.420312 1085.507813 2154.951562 C 1067.96875 2157.1 1049.375 2159.75625 1035.039063 2169.873437 C 1007.421875 2189.521875 1005.273438 2230.967187 1017.5 2262.295312 C 1021.757813 2272.920312 1027.070313 2283.0375 1029.21875 2294.170312 C 1031.328125 2305.342187 1030.273438 2318.076562 1022.304688 2326.592187 C 1014.335938 2335.06875 1002.109375 2337.217187 992.03125 2341.982812 C 981.914063 2346.7875 972.34375 2359.521875 978.710938 2369.6 C 980.859375 2373.35 984.570313 2375.459375 988.28125 2377.56875 C 1012.734375 2390.342187 1043.007813 2389.795312 1070.117188 2394.6 C 1061.601563 2409.44375 1043.007813 2414.75625 1025.46875 2415.303125 C 1007.96875 2415.85 990.9375 2413.19375 974.492188 2418.50625 C 958.007813 2423.81875 944.179688 2440.810937 949.492188 2457.25625 C 953.242188 2466.826562 962.265625 2473.19375 969.140625 2480.654687 C 980.3125 2492.88125 985.117188 2510.38125 981.40625 2526.31875 C 980.3125 2531.63125 978.203125 2536.435937 975 2540.69375 C 960.664063 2557.139062 932.5 2544.9125 913.359375 2555.5375 C 899.023438 2562.998437 893.710938 2582.1 896.914063 2598.0375 C 900.078125 2613.975 909.648438 2627.803125 918.671875 2641.084375 C 940.46875 2672.4125 962.8125 2704.2875 991.484375 2729.795312 C 1020.15625 2755.303125 1056.835938 2773.896875 1095.078125 2774.44375 C 1159.882813 2774.951562 1218.320313 2723.428125 1283.125 2729.795312 C 1312.890625 2732.998437 1343.164063 2747.88125 1371.328125 2738.857812 C 1400 2729.2875 1415.429688 2698.975 1435.078125 2676.670312 C 1464.296875 2644.2875 1506.289063 2625.69375 1537.109375 2594.873437 C 1597.65625 2534.2875 1604.53125 2439.75625 1611.992188 2354.209375 C 1626.367188 2191.123437 1655.585938 2029.560937 1699.6875 1871.7875 C 1740.039063 1727.842187 1743.789063 1581.201562 1741.132813 1431.396875 C 1741.132813 1418.623437 1740.585938 1405.303125 1734.726563 1393.623437 C 1723.046875 1369.209375 1691.171875 1358.584375 1665.15625 1366.553125 C 1639.101563 1374.521875 1619.453125 1396.31875 1607.734375 1421.279687 C 1596.054688 1445.69375 1591.289063 1472.803125 1585.46875 1499.365625 C 1566.835938 1592.88125 1509.453125 1697.021875 1493.007813 1791.045312 Z M 1493.007813 1791.045312" transform="matrix(.1 0 0 -.1 0 386.21)" fill="#994848" stroke-width="5.313" stroke="#000" stroke-miterlimit="10" />
  <path d="M 1486.09375 2064.678125 C 1499.375 2107.178125 1540.78125 2134.248437 1559.921875 2174.092187 C 1568.945313 2192.685937 1572.695313 2213.975 1575.351563 2234.678125 C 1579.609375 2266.553125 1580.664063 2301.63125 1561.015625 2327.1 C 1558.867188 2329.75625 1556.757813 2331.904687 1553.554688 2332.4125 C 1547.1875 2332.959375 1544.53125 2324.990625 1543.984375 2318.623437 C 1542.382813 2301.63125 1543.476563 2284.092187 1540.273438 2267.060937 C 1537.617188 2250.06875 1529.648438 2233.076562 1515.3125 2223.50625 C 1500.976563 2213.975 1478.125 2216.592187 1469.609375 2231.475 C 1460.585938 2247.4125 1470.15625 2267.060937 1472.265625 2285.146875 C 1474.921875 2307.998437 1463.789063 2332.4125 1444.648438 2345.185937 C 1441.992188 2346.7875 1439.335938 2348.35 1436.679688 2348.35 C 1428.164063 2348.896875 1423.398438 2337.725 1424.453125 2329.75625 C 1425.507813 2321.7875 1430.820313 2313.81875 1431.875 2305.342187 C 1432.96875 2296.826562 1426.054688 2286.201562 1418.085938 2288.35 C 1413.828125 2289.404687 1411.171875 2293.115625 1409.570313 2296.826562 C 1403.75 2312.25625 1414.375 2329.75625 1414.375 2346.240625 C 1414.375 2361.63125 1404.804688 2375.459375 1392.578125 2385.029687 C 1380.351563 2394.6 1366.015625 2399.9125 1351.679688 2404.678125 C 1315 2417.4125 1277.304688 2429.13125 1238.515625 2432.295312 C 1199.726563 2435.498437 1159.375 2429.639062 1125.898438 2409.44375 C 1120.585938 2406.279687 1115.273438 2402.56875 1112.617188 2396.709375 C 1107.304688 2386.084375 1113.671875 2373.35 1120.039063 2363.232812 C 1130.15625 2348.35 1142.34375 2334.560937 1155.625 2322.334375 C 1159.882813 2318.076562 1164.6875 2314.365625 1167.34375 2308.50625 C 1169.453125 2303.19375 1168.90625 2295.225 1163.59375 2292.56875 C 1159.882813 2290.459375 1155.625 2291.00625 1151.40625 2292.060937 C 1139.6875 2295.225 1129.609375 2302.685937 1123.242188 2312.764062 C 1118.984375 2320.225 1116.328125 2328.701562 1109.414063 2334.014062 C 1103.046875 2339.326562 1090.3125 2339.326562 1088.164063 2330.85 C 1087.65625 2328.19375 1087.65625 2325.5375 1087.109375 2322.88125 C 1084.453125 2314.9125 1071.71875 2315.420312 1066.40625 2322.334375 C 1061.09375 2329.248437 1060 2337.725 1057.34375 2345.69375 C 1049.921875 2368.0375 1024.414063 2382.373437 1001.5625 2378.115625 C 992.03125 2376.514062 981.914063 2369.6 982.421875 2360.06875 C 982.421875 2352.607812 988.28125 2347.295312 992.539063 2340.928125 L 993.085938 2340.928125 C 1003.164063 2335.615625 1015.390625 2333.50625 1023.359375 2325.5375 C 1031.328125 2317.021875 1032.382813 2304.2875 1030.273438 2293.115625 C 1028.125 2281.94375 1022.8125 2271.865625 1018.554688 2261.240625 C 1006.875 2229.365625 1009.023438 2188.467187 1036.09375 2168.81875 C 1050.46875 2158.154687 1069.0625 2156.045312 1086.5625 2153.896875 C 1167.34375 2144.365625 1248.59375 2137.4125 1330.429688 2133.701562 C 1360.15625 2132.139062 1392.03125 2130.5375 1414.375 2110.889062 C 1435.625 2092.295312 1442.539063 2062.529687 1447.8125 2034.873437 C 1458.4375 1981.240625 1469.0625 1927.060937 1479.179688 1873.389062 C 1492.460938 1874.990625 1506.289063 1873.935937 1519.023438 1870.732812 C 1517.96875 1937.685937 1466.40625 2001.435937 1486.09375 2064.678125 Z M 1486.09375 2064.678125" transform="matrix(.1 0 0 -.1 0 386.21)" fill="#c86867" stroke-width="5.313" stroke="#000" stroke-miterlimit="10" />
  <path d="M1479.179688 2430.185937C1473.867188 2446.123437 1463.242188 2459.404687 1452.109375 2471.63125 1436.132813 2489.678125 1418.59375 2508.271875 1396.289063 2517.842187 1373.984375 2527.4125 1349.023438 2526.865625 1325.117188 2526.865625 1266.679688 2526.865625 1208.242188 2529.521875 1149.257813 2532.178125 1121.09375 2533.232812 1092.421875 2534.834375 1064.804688 2541.748437 1043.007813 2547.060937 1019.101563 2555.5375 998.398438 2547.060937 991.484375 2543.857812 985.117188 2539.092187 979.765625 2533.779687 980.859375 2531.63125 981.40625 2529.521875 981.914063 2526.865625 985.117188 2510.928125 980.3125 2493.389062 969.6875 2481.1625 962.8125 2473.19375 953.242188 2467.373437 950.039063 2457.803125 944.179688 2441.865625 958.515625 2424.326562 975 2419.014062 987.773438 2414.75625 1001.054688 2415.303125 1014.335938 2415.85 1032.382813 2428.584375 1046.210938 2449.834375 1043.007813 2472.139062 1050.46875 2470.5375 1056.835938 2464.717187 1058.945313 2457.25625 1060 2453.0375 1060 2448.779687 1062.148438 2445.06875 1065.859375 2438.154687 1075.429688 2436.553125 1083.90625 2437.1 1121.640625 2437.607812 1157.773438 2448.232812 1194.960938 2454.6 1244.882813 2463.115625 1295.898438 2463.115625 1345.3125 2454.6 1358.59375 2452.490625 1371.328125 2449.2875 1383.007813 2442.920312 1409.570313 2428.0375 1422.851563 2396.709375 1448.359375 2379.717187 1458.4375 2372.803125 1473.867188 2370.146875 1480.78125 2379.717187 1483.945313 2384.482812 1483.945313 2390.342187 1483.4375 2396.1625 1482.890625 2407.334375 1482.34375 2419.014062 1479.179688 2430.185937zM1595.546875 2080.576562C1595.039063 2086.435937 1594.453125 2091.748437 1596.054688 2097.607812 1597.65625 2102.88125 1601.914063 2108.19375 1607.226563 2108.740625 1613.085938 2109.795312 1618.90625 2105.576562 1621.5625 2100.264062 1624.21875 2094.9125 1625.273438 2089.092187 1625.820313 2083.232812 1632.734375 2020.029687 1646.523438 1952.529687 1645.46875 1889.326562 1602.421875 1884.014062 1608.828125 1924.9125 1606.171875 1956.279687 1602.96875 1997.178125 1599.257813 2038.623437 1595.546875 2080.576562zM1595.546875 2080.576562" transform="matrix(.1 0 0 -.1 0 386.21)" fill="#c86867" stroke-width="5.313" stroke="#000" stroke-miterlimit="10" />
  <path d="M1112.617188 2337.725C1113.671875 2340.38125 1115.78125 2343.0375 1118.4375 2343.0375 1120.585938 2343.0375 1122.1875 2340.928125 1123.242188 2338.81875 1135.976563 2320.225 1142.890625 2297.88125 1149.257813 2276.63125 1158.828125 2245.303125 1167.851563 2212.88125 1166.796875 2179.951562 1166.25 2173.0375 1165.742188 2165.615625 1160.429688 2161.357812 1155.625 2157.1 1148.75 2156.553125 1142.34375 2157.1 1131.71875 2157.646875 1121.640625 2158.701562 1111.015625 2160.303125 1107.304688 2160.810937 1103.046875 2161.865625 1099.84375 2164.521875 1094.53125 2168.81875 1092.96875 2176.201562 1092.421875 2183.154687 1090.3125 2209.170312 1095.625 2235.732812 1100.390625 2261.240625 1103.046875 2273.975 1105.703125 2287.25625 1107.304688 2300.029687 1109.414063 2312.25625 1108.359375 2326.592187 1112.617188 2337.725zM1100.390625 2541.748437C1094.53125 2543.35 1088.164063 2545.459375 1083.398438 2542.25625 1078.085938 2538.545312 1079.140625 2530.576562 1080.195313 2523.6625 1081.796875 2514.13125 1082.851563 2504.014062 1082.34375 2494.44375 1081.796875 2474.795312 1077.03125 2455.146875 1078.085938 2434.951562 1078.085938 2433.896875 1078.085938 2432.295312 1079.140625 2431.240625 1080.742188 2429.639062 1082.851563 2430.185937 1084.960938 2430.69375 1129.0625 2442.920312 1176.367188 2448.779687 1217.8125 2467.88125 1229.492188 2473.19375 1240.117188 2479.6 1251.796875 2484.9125 1277.304688 2496.045312 1304.921875 2499.75625 1332.539063 2502.959375 1345.3125 2504.560937 1358.046875 2505.615625 1370.78125 2505.615625 1386.210938 2505.615625 1402.65625 2504.014062 1417.03125 2510.38125 1418.085938 2510.928125 1419.140625 2511.475 1419.6875 2512.529687 1421.289063 2515.69375 1416.484375 2517.842187 1413.28125 2518.35 1380.351563 2521.553125 1347.96875 2524.209375 1315 2526.865625 1284.21875 2528.975 1253.398438 2527.920312 1222.578125 2530.06875 1192.8125 2532.178125 1163.085938 2534.834375 1133.320313 2536.94375 1123.242188 2537.490625 1113.125 2538.545312 1103.59375 2540.146875 1103.046875 2541.201562 1101.992188 2541.201562 1100.390625 2541.748437zM1100.390625 2541.748437" transform="matrix(.1 0 0 -.1 0 386.21)" fill="#e5dfcc" stroke-width="5.313" stroke="#020202" stroke-miterlimit="10" />
  <path d="M1109.414063 2334.560937C1106.25 2337.725 1101.992188 2339.873437 1099.84375 2343.584375 1097.1875 2347.295312 1096.679688 2351.553125 1096.679688 2356.31875 1096.132813 2368.0375 1097.1875 2380.771875 1103.59375 2390.342187 1104.648438 2391.94375 1105.703125 2393.50625 1107.8125 2393.50625 1109.414063 2393.50625 1110.46875 2392.451562 1111.015625 2391.396875 1117.929688 2382.88125 1115.273438 2369.092187 1123.242188 2361.123437 1126.40625 2357.4125 1131.210938 2355.810937 1133.320313 2351.00625 1135.976563 2345.69375 1132.8125 2339.326562 1131.210938 2334.014062 1128.554688 2325.5375 1130.15625 2318.076562 1132.265625 2309.6 1133.320313 2304.2875 1135.46875 2298.975 1127.5 2301.084375 1116.875 2303.740625 1116.875 2327.1 1109.414063 2334.560937zM1098.28125 2481.1625C1099.335938 2483.81875 1101.992188 2487.56875 1104.648438 2485.967187 1105.703125 2485.420312 1106.25 2484.365625 1106.25 2483.310937 1108.90625 2476.94375 1106.25 2469.482812 1105.15625 2462.56875 1103.59375 2455.69375 1104.101563 2447.178125 1109.960938 2443.467187 1111.5625 2442.4125 1113.671875 2441.865625 1114.726563 2440.264062 1116.875 2437.1 1114.21875 2433.35 1111.5625 2430.185937 1103.046875 2420.06875 1097.734375 2407.88125 1095.625 2395.107812 1095.078125 2392.998437 1095.078125 2390.85 1094.023438 2388.740625 1092.96875 2386.63125 1090.820313 2385.5375 1088.710938 2385.5375 1087.109375 2386.084375 1085.507813 2387.685937 1084.453125 2389.2875 1079.6875 2396.1625 1075.429688 2403.623437 1073.828125 2412.1 1072.226563 2420.615625 1073.28125 2429.639062 1079.140625 2436.00625 1084.960938 2442.4125 1088.710938 2445.576562 1090.820313 2453.545312 1093.476563 2463.115625 1095.078125 2472.139062 1098.28125 2481.1625zM1098.28125 2481.1625" transform="matrix(.1 0 0 -.1 0 386.21)" fill="#f9f6e4" stroke-width="5.313" stroke="#020202" stroke-miterlimit="10" />
  <path d="M1553.554688 2296.31875C1553.554688 2297.88125 1553.554688 2299.482812 1554.648438 2301.084375 1556.210938 2302.685937 1558.867188 2302.139062 1560.46875 2300.5375 1562.03125 2298.975 1562.617188 2296.826562 1563.125 2294.717187 1564.726563 2287.803125 1565.78125 2220.85 1548.242188 2232.021875 1542.96875 2235.732812 1548.242188 2249.560937 1549.296875 2254.326562 1551.953125 2268.154687 1553.554688 2281.94375 1553.554688 2296.31875zM1541.875 2204.404687C1542.96875 2205.459375 1543.984375 2206.514062 1545.585938 2205.967187 1546.132813 2205.967187 1546.640625 2205.459375 1547.1875 2204.404687 1550.898438 2199.053125 1550.898438 2192.178125 1549.296875 2186.31875 1547.695313 2180.498437 1543.984375 2175.185937 1540.273438 2169.873437 1530.703125 2157.1 1520.625 2144.365625 1507.851563 2134.795312 1504.6875 2132.646875 1500.429688 2130.5375 1497.773438 2133.19375 1496.171875 2134.795312 1496.171875 2136.904687 1496.171875 2138.50625 1497.226563 2153.896875 1509.453125 2159.248437 1518.515625 2169.326562 1526.445313 2180.498437 1532.8125 2193.232812 1541.875 2204.404687zM1541.875 2204.404687" transform="matrix(.1 0 0 -.1 0 386.21)" fill="#e5b6bd" stroke-width="5.313" stroke="#020202" stroke-miterlimit="10" />
  <path d="M 852.265625 398.0375 C 793.28125 605.732812 774.179688 825.185937 805.507813 1038.740625 C 828.90625 1199.209375 872.96875 1360.185937 952.695313 1502.56875 C 993.085938 1574.834375 1049.921875 1661.435937 1132.265625 1690.107812 C 1177.421875 1706.045312 1231.601563 1701.279687 1267.1875 1669.404687 C 1328.828125 1614.13125 1309.6875 1512.646875 1347.96875 1439.326562 C 1364.414063 1407.998437 1390.46875 1383.0375 1420.195313 1363.896875 C 1439.84375 1351.123437 1465.898438 1340.5375 1486.09375 1352.725 C 1498.828125 1360.69375 1505.195313 1375.06875 1511.054688 1388.310937 C 1529.101563 1427.139062 1552.5 1463.779687 1579.609375 1496.748437 C 1582.773438 1500.459375 1586.484375 1504.717187 1591.289063 1504.717187 C 1597.148438 1504.717187 1601.367188 1499.9125 1604.53125 1494.6 C 1621.054688 1468.0375 1624.765625 1435.615625 1639.101563 1407.998437 C 1653.476563 1380.342187 1688.007813 1357.490625 1715.078125 1372.920312 C 1727.851563 1379.834375 1735.273438 1393.623437 1741.640625 1406.396875 C 1765.546875 1455.264062 1783.632813 1506.826562 1795.820313 1559.404687 C 1804.882813 1598.740625 1813.359375 1643.896875 1847.890625 1664.6 C 1870.195313 1677.88125 1898.90625 1677.373437 1923.867188 1668.310937 C 1948.828125 1659.2875 1969.570313 1642.842187 1989.726563 1626.357812 C 2049.765625 1575.889062 2104.492188 1519.053125 2152.851563 1457.959375 C 2261.210938 1320.303125 2339.84375 1160.420312 2391.40625 993.584375 C 2419.53125 902.764062 2436.5625 808.701562 2448.789063 714.678125 C 2452.5 688.115625 2482.773438 407.060937 2467.382813 404.951562 C 2366.953125 390.576562 2266.015625 411.31875 2166.132813 429.9125 C 1896.757813 479.834375 1620.507813 514.365625 1349.023438 474.521875 C 1192.8125 451.670312 1009.023438 391.670312 852.265625 398.0375 Z M 852.265625 398.0375" transform="matrix(.1 0 0 -.1 0 386.21)" fill="#894343" stroke-width="5.313" stroke="#000" stroke-miterlimit="10" />
  <path d="M 2480.117188 407.607812 L 2431.25 412.920312 C 2439.765625 434.678125 2435.507813 470.264062 2439.765625 495.771875 C 2445.078125 529.795312 2456.210938 545.185937 2455.15625 580.264062 C 2454.609375 608.935937 2442.421875 637.607812 2439.765625 668.975 C 2438.164063 695.029687 2436.5625 723.701562 2432.851563 751.31875 C 2430.703125 767.803125 2419.53125 806.045312 2416.914063 817.217187 C 2411.054688 842.178125 2414.257813 844.326562 2409.453125 870.889062 C 2405.195313 893.19375 2401.484375 909.13125 2398.28125 926.670312 C 2392.460938 956.94375 2384.492188 982.959375 2377.578125 1013.779687 C 2370.664063 1042.490625 2362.695313 1068.50625 2354.765625 1097.178125 C 2348.359375 1119.521875 2332.96875 1162.021875 2326.054688 1183.779687 C 2319.140625 1205.576562 2312.226563 1218.857812 2297.34375 1260.810937 C 2287.773438 1286.865625 2279.804688 1305.459375 2267.070313 1331.475 C 2252.734375 1360.185937 2241.5625 1390.459375 2225.625 1419.678125 C 2211.289063 1445.185937 2191.601563 1472.803125 2175.664063 1497.803125 C 2159.21875 1524.873437 2145.9375 1553.584375 2128.398438 1579.6 C 2110.351563 1605.654687 2088.554688 1624.75625 2069.960938 1649.209375 C 2052.96875 1671.514062 2047.65625 1690.107812 2022.695313 1715.06875 C 2000.351563 1736.865625 1990.273438 1743.779687 1964.765625 1763.935937 L 2007.265625 1819.209375 C 2030.117188 1801.123437 2034.375 1770.85 2054.023438 1748.545312 C 2073.671875 1726.240625 2108.203125 1712.959375 2125.742188 1690.107812 C 2143.28125 1666.748437 2143.28125 1633.271875 2161.875 1606.1625 C 2181.523438 1577.998437 2216.054688 1564.209375 2234.648438 1533.935937 C 2248.984375 1510.5375 2255.9375 1470.146875 2269.21875 1446.7875 C 2286.210938 1415.967187 2312.773438 1395.225 2327.65625 1364.951562 C 2339.335938 1341.045312 2339.84375 1309.717187 2349.960938 1286.31875 C 2365.351563 1249.678125 2381.328125 1241.709375 2391.914063 1208.740625 C 2398.828125 1186.982812 2406.289063 1138.623437 2412.65625 1116.31875 C 2421.679688 1084.990625 2440.820313 1056.826562 2448.242188 1025.459375 C 2455.15625 994.678125 2447.1875 962.803125 2453.046875 931.982812 C 2456.210938 916.045312 2457.265625 894.248437 2466.835938 880.967187 C 2484.375 855.459375 2491.796875 844.834375 2482.265625 806.045312 C 2479.0625 794.365625 2475.859375 771.00625 2477.460938 759.2875 C 2480.664063 729.560937 2509.335938 703.50625 2511.484375 675.342187 C 2513.59375 645.576562 2495 614.248437 2495.546875 586.63125 C 2496.601563 548.896875 2511.992188 521.826562 2510.9375 488.857812 C 2508.28125 461.7875 2482.773438 429.365625 2480.117188 407.607812 Z M 2480.117188 407.607812" transform="matrix(.1 0 0 -.1 0 386.21)" fill="#aa4646" stroke-width="5.313" stroke="#050505" stroke-miterlimit="10" />
  <path d="M 2013.90625 1817.451562 C 1993.554688 1837.764062 1965.3125 1842.451562 1950.820313 1827.959375 C 1936.289063 1813.428125 1940.976563 1785.185937 1961.289063 1764.834375 C 1981.640625 1744.521875 2009.921875 1739.795312 2024.453125 1754.326562 C 2038.945313 1768.857812 2034.21875 1797.1 2013.90625 1817.451562 Z M 2013.90625 1817.451562" transform="matrix(.1 0 0 -.1 0 386.21)" fill="#bfa68a" stroke-width="9.576" stroke="#ddc2a8" stroke-miterlimit="10" />
  <path d="M 2127.851563 1689.365625 C 2109.414063 1711.475 2081.71875 1718.701562 2065.9375 1705.5375 C 2050.15625 1692.4125 2052.304688 1663.81875 2070.703125 1641.748437 C 2089.140625 1619.639062 2116.835938 1612.4125 2132.617188 1625.576562 C 2148.398438 1638.701562 2146.25 1667.295312 2127.851563 1689.365625 Z M 2127.851563 1689.365625" transform="matrix(.1 0 0 -.1 0 386.21)" fill="#bfa68a" stroke-width="9.577" stroke="#ddc2a8" stroke-miterlimit="10.001" />
  <path d="M2234.84375 1536.396875C2218.90625 1560.342187 2192.109375 1570.498437 2175.039063 1559.092187 2157.929688 1547.725 2156.992188 1519.092187 2172.96875 1495.185937 2188.867188 1471.240625 2215.664063 1461.084375 2232.773438 1472.451562 2249.84375 1483.857812 2250.78125 1512.490625 2234.84375 1536.396875zM2328.710938 1366.31875C2315.351563 1391.7875 2289.726563 1404.639062 2271.5625 1395.06875 2253.398438 1385.5375 2249.492188 1357.139062 2262.890625 1331.709375 2276.289063 1306.240625 2301.875 1293.389062 2320.039063 1302.920312 2338.242188 1312.490625 2342.109375 1340.889062 2328.710938 1366.31875zM2328.710938 1366.31875" transform="matrix(.1 0 0 -.1 0 386.21)" fill="#bfa68a" stroke-width="9.576" stroke="#ddc2a8" stroke-miterlimit="10" />
  <path d="M 2393.164063 1208.389062 C 2381.992188 1234.9125 2357.617188 1249.9125 2338.671875 1241.94375 C 2319.765625 1233.975 2313.476563 1206.00625 2324.648438 1179.521875 C 2335.78125 1152.998437 2360.195313 1137.998437 2379.140625 1145.967187 C 2398.046875 1153.975 2404.335938 1181.904687 2393.164063 1208.389062 Z M 2393.164063 1208.389062" transform="matrix(.1 0 0 -.1 0 386.21)" fill="#bfa68a" stroke-width="9.574" stroke="#ddc2a8" stroke-miterlimit="9.999" />
  <path d="M 2447.1875 1029.795312 C 2437.695313 1056.94375 2414.296875 1073.467187 2394.882813 1066.670312 C 2375.507813 1059.9125 2367.460938 1032.4125 2376.953125 1005.264062 C 2386.445313 978.115625 2409.84375 961.592187 2429.257813 968.389062 C 2448.632813 975.146875 2456.640625 1002.646875 2447.1875 1029.795312 Z M 2447.1875 1029.795312" transform="matrix(.1 0 0 -.1 0 386.21)" fill="#bfa68a" stroke-width="9.576" stroke="#ddc2a8" stroke-miterlimit="10" />
  <path d="M 2485.585938 839.990625 C 2482.03125 868.50625 2462.617188 889.560937 2442.226563 887.021875 C 2421.835938 884.482812 2408.203125 859.2875 2411.796875 830.732812 C 2415.390625 802.217187 2434.804688 781.123437 2455.15625 783.701562 C 2475.546875 786.279687 2489.179688 811.475 2485.585938 839.990625 Z M 2485.585938 839.990625" transform="matrix(.1 0 0 -.1 0 386.21)" fill="#bfa68a" stroke-width="9.574" stroke="#ddc2a8" stroke-miterlimit="9.999" />
  <path d="M 2512.421875 674.6 C 2510.117188 703.271875 2491.640625 725.146875 2471.171875 723.545312 C 2450.703125 721.904687 2435.976563 697.295312 2438.28125 668.6625 C 2440.585938 639.990625 2459.023438 618.076562 2479.492188 619.717187 C 2500 621.357812 2514.726563 645.928125 2512.421875 674.6 Z M 2512.421875 674.6" transform="matrix(.1 0 0 -.1 0 386.21)" fill="#bfa68a" stroke-width="9.576" stroke="#ddc2a8" stroke-miterlimit="10" />
  <path d="M 2479.6875 543.35 C 2459.21875 545.225 2440.546875 523.50625 2437.929688 494.834375 C 2435.351563 466.201562 2449.84375 441.475 2470.3125 439.639062 C 2490.742188 437.803125 2509.453125 459.521875 2512.03125 488.154687 C 2514.648438 516.7875 2500.117188 541.514062 2479.6875 543.35 Z M 2479.6875 543.35" transform="matrix(.1 0 0 -.1 0 386.21)" fill="#bfa68a" stroke-width="9.577" stroke="#ddc2a8" stroke-miterlimit="10.001" />
  <path d="M 167.3125 244.347656 L 166.089844 246.367188 C 164.230469 247.589844 162.15625 248.492188 160.03125 249.023438 C 159.820313 248.492188 159.605469 247.960938 159.445313 247.378906 C 162.050781 246.472656 164.496094 244.984375 166.515625 243.128906 C 166.726563 243.550781 167.046875 243.925781 167.3125 244.347656 Z M 167.3125 244.347656" fill="#bfa68a" />
  <path d="M166.089844 246.367188L162.15625 252.851563C161.253906 251.679688 160.617188 250.351563 160.03125 249.023438 162.15625 248.441406 164.230469 247.535156 166.089844 246.367188zM165.238281 240.363281C165.558594 241.320313 165.980469 242.277344 166.460938 243.128906 164.441406 244.984375 161.996094 246.421875 159.394531 247.378906 158.808594 245.570313 158.386719 243.65625 158.011719 241.800781 158.011719 241.742188 158.011719 241.640625 157.960938 241.585938 160.453125 241.800781 163.007813 241.371094 165.238281 240.363281zM164.761719 208.273438C164.8125 210.558594 164.8125 212.84375 164.761719 215.128906 164.121094 215.285156 163.484375 215.445313 162.847656 215.605469 160.511719 216.191406 158.171875 216.773438 155.726563 216.828125 153.921875 216.828125 152.0625 216.5625 150.414063 215.710938 150.097656 213.480469 149.777344 211.195313 149.40625 209.019531 154.453125 210.503906 159.925781 210.238281 164.761719 208.273438zM164.761719 208.273438" fill="#c1c1c1" />
  <path d="M162.898438 215.605469C163.539063 215.445313 164.175781 215.285156 164.8125 215.128906 164.8125 215.660156 164.8125 216.191406 164.8125 216.722656 160.511719 218.738281 155.464844 219.113281 150.839844 217.835938 150.734375 217.144531 150.628906 216.457031 150.519531 215.710938 152.113281 216.507813 154.027344 216.828125 155.835938 216.828125 158.171875 216.773438 160.5625 216.191406 162.898438 215.605469zM164.707031 206.734375C164.707031 207.265625 164.707031 207.742188 164.707031 208.273438 159.871094 210.238281 154.398438 210.453125 149.460938 209.019531 149.351563 208.378906 149.246094 207.742188 149.140625 207.105469 151.425781 208.007813 153.976563 208.328125 156.472656 208.167969 159.289063 208.007813 161.996094 207.425781 164.707031 206.734375zM164.652344 237.921875C164.8125 238.769531 164.972656 239.566406 165.238281 240.363281 162.953125 241.371094 160.453125 241.800781 157.960938 241.585938 157.960938 241.585938 157.960938 241.53125 157.960938 241.480469 157.960938 241.480469 157.960938 241.53125 157.960938 241.585938 157.109375 241.480469 156.203125 241.320313 155.410156 241.105469 154.347656 240.785156 153.339844 240.363281 152.328125 239.9375 151.953125 239.777344 151.53125 239.566406 151.15625 239.40625 151.316406 238.820313 151.476563 238.183594 151.585938 237.601563 155.726563 239.246094 160.453125 239.40625 164.652344 237.921875zM164.652344 237.921875" fill="#bfa68a" />
  <path d="M 164.761719 216.722656 C 164.761719 218.6875 164.707031 220.652344 164.601563 222.617188 C 163.855469 222.832031 163.164063 223.148438 162.421875 223.363281 C 158.914063 224.582031 154.984375 224.582031 151.425781 223.363281 C 151.214844 221.609375 151 219.75 150.734375 217.785156 C 155.410156 219.113281 160.453125 218.6875 164.761719 216.722656 Z M 164.761719 216.722656" fill="#c1c1c1" />
  <path d="M 164.652344 222.617188 C 164.652344 223.308594 164.601563 224 164.601563 224.691406 C 160.5625 226.441406 155.886719 226.707031 151.742188 225.378906 C 151.6875 224.742188 151.585938 224.050781 151.53125 223.414063 C 155.089844 224.582031 158.96875 224.582031 162.527344 223.414063 C 163.164063 223.148438 163.910156 222.832031 164.652344 222.617188 Z M 164.652344 222.617188" fill="#bfa68a" />
  <path d="M164.496094 199.242188C164.601563 201.738281 164.707031 204.238281 164.761719 206.734375 162.050781 207.371094 159.339844 208.007813 156.523438 208.167969 154.027344 208.273438 151.476563 208.007813 149.191406 207.105469 148.769531 204.394531 148.289063 201.738281 147.917969 199.402344 150.097656 200.304688 152.382813 200.835938 154.71875 200.890625 158.011719 200.941406 161.308594 200.144531 164.496094 199.242188zM164.546875 224.691406C164.496094 225.753906 164.441406 226.816406 164.390625 227.878906 164.335938 228.78125 164.28125 229.683594 164.28125 230.585938 160.453125 232.285156 156.046875 232.605469 152.007813 231.488281 152.007813 230.003906 151.902344 228.515625 151.796875 227.082031 151.742188 226.550781 151.6875 225.964844 151.636719 225.433594 155.886719 226.707031 160.5625 226.441406 164.546875 224.691406zM164.546875 224.691406" fill="#c1c1c1" />
  <path d="M164.390625 196.585938C164.441406 197.488281 164.496094 198.339844 164.496094 199.242188 161.308594 200.144531 158.011719 200.941406 154.71875 200.890625 152.382813 200.835938 150.042969 200.359375 147.917969 199.402344 147.757813 198.445313 147.597656 197.597656 147.4375 196.746094 148.925781 197.382813 150.574219 197.703125 152.222656 197.863281 154.984375 198.128906 157.746094 197.808594 160.511719 197.4375 161.785156 197.277344 163.164063 197.117188 164.390625 196.585938zM164.28125 230.535156C164.28125 231.066406 164.230469 231.648438 164.230469 232.234375 163.753906 232.445313 163.273438 232.714844 162.796875 232.925781 159.445313 234.519531 155.515625 234.730469 152.007813 233.613281 152.007813 232.925781 152.0625 232.179688 152.007813 231.488281 156.046875 232.605469 160.511719 232.285156 164.28125 230.535156zM164.28125 230.535156" fill="#bfa68a" />
  <path d="M164.28125 232.234375C164.28125 234.144531 164.335938 236.058594 164.707031 237.921875 160.511719 239.40625 155.726563 239.246094 151.636719 237.546875 151.902344 236.273438 152.007813 234.945313 152.0625 233.613281 155.566406 234.730469 159.503906 234.464844 162.847656 232.925781 163.273438 232.714844 163.753906 232.445313 164.28125 232.234375zM163.910156 189.679688C164.070313 191.964844 164.230469 194.300781 164.335938 196.585938 163.113281 197.117188 161.730469 197.277344 160.453125 197.4375 157.691406 197.753906 154.929688 198.074219 152.167969 197.863281 150.519531 197.703125 148.925781 197.382813 147.386719 196.746094 146.640625 192.65625 146.164063 189.894531 146.164063 189.894531 156.472656 195.207031 163.910156 189.679688 163.910156 189.679688zM158.011719 241.742188C158.328125 243.65625 157.109375 245.570313 155.941406 247.164063 155.941406 247.21875 155.886719 247.21875 155.886719 247.269531 153.65625 245.890625 151.6875 244.082031 150.203125 241.957031 150.628906 241.105469 150.945313 240.257813 151.214844 239.355469 151.585938 239.566406 151.953125 239.726563 152.382813 239.886719 153.390625 240.363281 154.398438 240.785156 155.464844 241.054688 156.3125 241.320313 157.160156 241.480469 158.011719 241.53125 158.011719 241.640625 158.011719 241.691406 158.011719 241.742188zM158.011719 241.742188" fill="#c1c1c1" />
  <path d="M 158.011719 241.742188 C 158.011719 241.691406 158.011719 241.585938 157.960938 241.53125 C 158.011719 241.640625 158.011719 241.691406 158.011719 241.742188 Z M 158.011719 241.742188" fill="#c1c1c1" />
  <path d="M157.960938 241.480469C157.960938 241.480469 157.960938 241.53125 157.960938 241.585938 158.011719 241.53125 157.960938 241.480469 157.960938 241.480469zM155.886719 247.269531C155.566406 247.695313 155.304688 248.066406 154.984375 248.492188 153.125 247.269531 151.476563 245.835938 149.988281 244.242188L149.460938 243.285156C149.722656 242.859375 149.988281 242.382813 150.203125 241.957031 151.6875 244.082031 153.65625 245.890625 155.886719 247.269531zM155.886719 247.269531" fill="#bfa68a" />
  <path d="M 154.984375 248.492188 C 154.507813 249.183594 153.976563 249.871094 153.496094 250.511719 L 149.988281 244.1875 C 151.425781 245.890625 153.125 247.324219 154.984375 248.492188 Z M 154.984375 248.492188" fill="#c1c1c1" />
  <path d="M 1580.117188 1446.240625 C 1580.117188 1445.69375 1580.117188 1445.185937 1580.664063 1444.092187 C 1584.882813 1425.5375 1588.632813 1406.396875 1594.453125 1388.310937 C 1596.601563 1383.0375 1598.203125 1377.178125 1600.3125 1371.865625 C 1605.625 1358.0375 1612.539063 1345.303125 1621.5625 1333.584375 L 1660.898438 1398.428125 L 1673.125 1418.623437 C 1669.921875 1422.334375 1667.265625 1426.592187 1665.15625 1430.810937 C 1659.804688 1439.326562 1656.09375 1448.896875 1652.890625 1458.467187 C 1650.273438 1466.435937 1648.125 1474.404687 1647.070313 1482.88125 C 1643.90625 1501.514062 1642.8125 1520.654687 1642.8125 1539.75625 C 1642.8125 1545.06875 1642.8125 1550.928125 1643.359375 1556.748437 C 1643.359375 1565.771875 1643.90625 1574.834375 1644.414063 1583.857812 C 1644.960938 1594.482812 1645.46875 1605.107812 1646.015625 1615.732812 C 1646.015625 1622.646875 1646.523438 1629.560937 1646.523438 1636.435937 C 1647.070313 1656.123437 1647.617188 1675.771875 1648.125 1695.420312 C 1648.125 1700.732812 1648.125 1706.045312 1648.125 1711.357812 C 1648.125 1734.209375 1648.125 1757.060937 1648.125 1779.873437 C 1648.125 1785.185937 1648.125 1789.990625 1648.125 1795.303125 C 1647.617188 1820.264062 1647.070313 1845.225 1645.46875 1870.185937 C 1644.960938 1879.248437 1644.960938 1887.725 1644.414063 1896.748437 C 1643.359375 1919.6 1641.757813 1942.998437 1640.15625 1965.810937 C 1640.15625 1965.810937 1565.78125 1911.123437 1462.695313 1963.701562 C 1462.695313 1963.701562 1468.007813 1936.592187 1474.921875 1895.185937 C 1476.523438 1886.670312 1478.125 1878.154687 1479.726563 1868.623437 C 1483.945313 1845.225 1488.203125 1819.209375 1492.460938 1791.592187 C 1493.515625 1785.185937 1494.609375 1778.81875 1495.625 1772.451562 C 1499.375 1750.146875 1502.539063 1727.295312 1505.742188 1705.498437 C 1506.796875 1698.076562 1507.851563 1691.1625 1508.945313 1684.248437 C 1511.5625 1665.146875 1513.710938 1646.00625 1515.859375 1628.467187 C 1516.367188 1621.592187 1517.421875 1615.185937 1517.96875 1608.81875 C 1518.515625 1602.998437 1519.023438 1597.685937 1519.53125 1592.373437 C 1520.625 1577.998437 1521.679688 1563.154687 1521.679688 1548.271875 C 1521.679688 1540.810937 1521.679688 1533.935937 1521.679688 1526.982812 C 1521.132813 1513.701562 1519.53125 1500.459375 1517.421875 1487.685937 C 1516.367188 1481.31875 1514.765625 1475.498437 1513.164063 1469.639062 C 1510.507813 1460.576562 1507.34375 1452.1 1503.085938 1443.584375 C 1500.976563 1438.81875 1498.28125 1434.560937 1495.625 1430.303125 L 1500.976563 1420.732812 L 1536.015625 1357.490625 C 1540.78125 1364.404687 1546.132813 1371.357812 1550.898438 1377.685937 C 1554.101563 1381.94375 1556.757813 1385.69375 1559.921875 1389.9125 C 1559.921875 1390.459375 1560.46875 1390.459375 1560.46875 1391.00625 C 1572.148438 1406.94375 1584.882813 1426.045312 1581.171875 1445.185937 C 1580.117188 1445.185937 1580.117188 1445.69375 1580.117188 1446.240625 C 1580.117188 1446.240625 1580.117188 1446.7875 1580.117188 1447.295312 C 1579.609375 1447.295312 1580.117188 1446.7875 1580.117188 1446.240625" transform="matrix(.1 0 0 -.1 0 386.21)" fill="none" stroke-width="5.313" stroke="#000" stroke-miterlimit="10" />
  <path d="M 827.304688 410.264062 C 812.421875 427.764062 799.6875 451.670312 794.335938 475.06875 C 788.515625 500.576562 783.710938 529.795312 776.835938 557.920312 C 769.921875 584.482812 755.039063 604.678125 753.4375 634.951562 C 751.328125 666.31875 757.148438 685.967187 755.039063 722.646875 C 753.984375 744.951562 743.867188 780.029687 744.960938 802.88125 C 746.015625 832.1 752.929688 859.717187 755.585938 889.482812 C 758.242188 920.303125 751.328125 952.685937 755.585938 984.053125 C 759.804688 1014.326562 775.742188 1044.053125 781.054688 1074.365625 C 785.859375 1099.834375 781.054688 1134.365625 786.914063 1159.873437 C 793.28125 1189.092187 811.875 1212.490625 822.5 1245.928125 C 831.015625 1271.982812 818.28125 1302.803125 828.90625 1330.420312 C 841.09375 1361.7875 872.460938 1385.69375 886.289063 1414.365625 C 899.023438 1441.982812 891.054688 1477.607812 906.484375 1506.279687 C 919.21875 1530.732812 960.15625 1558.35 973.945313 1580.654687 C 989.882813 1606.709375 992.03125 1645.498437 1007.96875 1668.310937 C 1015.9375 1679.482812 1071.71875 1715.06875 1084.453125 1729.404687 C 1115.273438 1763.428125 1109.960938 1785.185937 1140.234375 1804.326562 L 1180.625 1751.201562 C 1155.625 1728.896875 1137.578125 1712.959375 1117.382813 1690.654687 C 1094.023438 1664.6 1078.085938 1646.00625 1060.546875 1622.646875 C 1042.460938 1598.19375 1029.21875 1576.94375 1012.1875 1549.873437 C 996.25 1525.420312 980.3125 1499.365625 967.03125 1472.803125 C 952.695313 1444.678125 938.359375 1419.13125 926.132813 1390.459375 C 913.359375 1361.240625 904.882813 1333.584375 894.21875 1304.9125 C 885.234375 1279.951562 877.226563 1251.240625 872.460938 1227.334375 C 865.039063 1191.748437 861.835938 1173.701562 855.46875 1146.084375 C 849.609375 1120.576562 843.242188 1086.553125 838.4375 1061.084375 C 833.164063 1031.31875 829.960938 1002.1 825.703125 972.88125 C 821.445313 942.060937 820.9375 917.646875 819.335938 887.334375 C 817.1875 840.06875 816.679688 823.076562 816.132813 800.732812 C 815.585938 776.31875 817.734375 743.896875 818.789063 716.279687 C 819.84375 689.678125 821.992188 663.6625 824.101563 640.810937 C 827.304688 611.592187 830.46875 591.396875 836.835938 565.889062 C 843.789063 539.873437 848.554688 524.482812 859.6875 501.084375 C 871.40625 475.576562 871.40625 441.592187 877.773438 424.053125 Z M 827.304688 410.264062" transform="matrix(.1 0 0 -.1 0 386.21)" fill="#aa4646" stroke-width="5.313" stroke="#050505" stroke-miterlimit="10" />
  <path d="M 1199.804688 1827.998437 C 1185.273438 1842.529687 1157.03125 1837.803125 1136.71875 1817.451562 C 1116.367188 1797.139062 1111.640625 1768.896875 1126.171875 1754.365625 C 1140.703125 1739.834375 1168.945313 1744.521875 1189.296875 1764.873437 C 1209.648438 1785.185937 1214.335938 1813.467187 1199.804688 1827.998437 Z M 1199.804688 1827.998437" transform="matrix(.1 0 0 -.1 0 386.21)" fill="#bfa68a" stroke-width="9.576" stroke="#ddc2a8" stroke-miterlimit="10" />
  <path d="M 1071.5625 1689.717187 C 1055.78125 1702.88125 1028.046875 1695.615625 1009.648438 1673.545312 C 991.25 1651.475 989.101563 1622.88125 1004.882813 1609.717187 C 1020.664063 1596.592187 1048.398438 1603.857812 1066.796875 1625.928125 C 1085.195313 1648.0375 1087.34375 1676.553125 1071.5625 1689.717187 Z M 1071.5625 1689.717187" transform="matrix(.1 0 0 -.1 0 386.21)" fill="#bfa68a" stroke-width="9.577" stroke="#ddc2a8" stroke-miterlimit="10.001" />
  <path d="M965.664063 1543.076562C948.554688 1554.44375 921.796875 1544.2875 905.859375 1520.342187 889.882813 1496.435937 890.820313 1467.803125 907.929688 1456.396875 925 1445.029687 951.796875 1455.185937 967.734375 1479.13125 983.671875 1503.0375 982.773438 1531.670312 965.664063 1543.076562zM884.53125 1367.451562C865.234375 1374.482812 841.601563 1358.271875 831.757813 1331.279687 821.914063 1304.248437 829.570313 1276.670312 848.867188 1269.639062 868.164063 1262.607812 891.796875 1278.779687 901.640625 1305.771875 911.484375 1332.803125 903.828125 1360.420312 884.53125 1367.451562zM837.226563 1203.701562C817.34375 1208.896875 795.351563 1190.5375 788.125 1162.725 780.859375 1134.873437 791.09375 1108.115625 810.976563 1102.920312 830.859375 1097.764062 852.851563 1116.123437 860.078125 1143.935937 867.34375 1171.748437 857.109375 1198.50625 837.226563 1203.701562zM837.226563 1203.701562" transform="matrix(.1 0 0 -.1 0 386.21)" fill="#bfa68a" stroke-width="9.576" stroke="#ddc2a8" stroke-miterlimit="10" />
  <path d="M793.945313 1032.725C773.554688 1035.264062 754.140625 1014.209375 750.585938 985.69375 746.992188 957.178125 760.585938 931.94375 780.976563 929.404687 801.367188 926.826562 820.78125 947.920312 824.375 976.435937 827.929688 1004.951562 814.335938 1030.146875 793.945313 1032.725zM790.390625 855.06875C770 857.607812 750.585938 836.553125 746.992188 808.0375 743.4375 779.482812 757.03125 754.2875 777.421875 751.748437 797.8125 749.170312 817.226563 770.225 820.78125 798.779687 824.375 827.295312 810.742188 852.490625 790.390625 855.06875zM790.390625 855.06875" transform="matrix(.1 0 0 -.1 0 386.21)" fill="#bfa68a" stroke-width="9.574" stroke="#ddc2a8" stroke-miterlimit="9.999" />
  <path d="M 791.914063 695.225 C 771.445313 696.865625 753.007813 674.951562 750.703125 646.31875 C 748.398438 617.607812 763.125 593.076562 783.59375 591.396875 C 804.0625 589.75625 822.539063 611.670312 824.804688 640.342187 C 827.109375 669.014062 812.382813 693.584375 791.914063 695.225 Z M 791.914063 695.225" transform="matrix(.1 0 0 -.1 0 386.21)" fill="#bfa68a" stroke-width="9.576" stroke="#ddc2a8" stroke-miterlimit="10" />
  <path d="M 851.992188 501.279687 C 840.820313 527.764062 816.445313 542.803125 797.5 534.834375 C 778.59375 526.826562 772.304688 498.896875 783.476563 472.4125 C 794.609375 445.889062 819.023438 430.889062 837.929688 438.857812 C 856.875 446.826562 863.164063 474.795312 851.992188 501.279687 Z M 851.992188 501.279687" transform="matrix(.1 0 0 -.1 0 386.21)" fill="#bfa68a" stroke-width="9.574" stroke="#ddc2a8" stroke-miterlimit="9.999" />
  <path d="M 2277.695313 439.990625 C 2305.3125 427.764062 2334.53125 415.576562 2364.296875 419.795312 C 2407.34375 425.654687 2439.765625 464.44375 2450.898438 506.396875 C 2462.070313 548.389062 2456.757813 592.451562 2450.390625 634.951562 C 2396.71875 1006.357812 2294.140625 1384.053125 2055.625 1674.170312 C 2013.125 1726.240625 1963.710938 1776.709375 1899.960938 1799.014062 C 1836.210938 1821.31875 1755.976563 1808.0375 1718.28125 1752.25625 C 1663.007813 1669.9125 1725.703125 1550.928125 1682.695313 1461.123437 C 1664.609375 1422.842187 1628.984375 1394.170312 1614.6875 1354.326562 C 1596.054688 1301.748437 1618.90625 1244.365625 1617.304688 1188.584375 C 1616.289063 1152.451562 1604.53125 1116.31875 1609.375 1080.732812 C 1613.59375 1047.25625 1631.132813 1016.982812 1644.414063 986.1625 C 1672.578125 920.303125 1680.546875 848.0375 1704.453125 780.576562 C 1728.359375 713.076562 1773.515625 646.670312 1842.578125 627.529687 C 1863.320313 621.670312 1885.078125 621.1625 1905.820313 616.357812 C 1971.679688 602.021875 2024.804688 555.264062 2083.242188 524.990625 C 2147.539063 493.115625 2213.945313 468.154687 2277.695313 439.990625 Z M 2277.695313 439.990625" transform="matrix(.1 0 0 -.1 0 386.21)" fill="#c3cde6" stroke-width="5.313" stroke="#000" stroke-miterlimit="10" />
  <path d="M 1643.359375 1367.060937 C 1660.898438 1405.889062 1702.851563 1429.795312 1722.539063 1467.490625 C 1766.09375 1551.435937 1686.914063 1665.654687 1740.039063 1743.779687 C 1771.914063 1791.045312 1841.523438 1800.615625 1894.648438 1778.81875 C 1947.773438 1757.56875 1987.617188 1712.959375 2023.203125 1667.803125 C 2270.234375 1356.982812 2413.710938 965.459375 2426.484375 568.545312 C 2427.539063 543.076562 2427.539063 517.021875 2418.515625 493.115625 C 2409.453125 469.209375 2389.804688 447.959375 2364.84375 443.701562 C 2348.359375 441.045312 2332.421875 446.357812 2316.484375 451.670312 C 2235.195313 479.834375 2159.21875 521.279687 2083.789063 562.178125 C 2028.007813 592.451562 1978.59375 646.670312 1913.789063 654.639062 C 1874.453125 659.404687 1825.585938 649.834375 1791.054688 673.740625 C 1756.523438 697.685937 1774.0625 751.865625 1761.289063 791.709375 C 1739.53125 784.2875 1717.226563 802.88125 1708.710938 824.13125 C 1700.742188 845.38125 1701.796875 868.740625 1698.085938 891.084375 C 1691.171875 936.240625 1664.609375 974.990625 1647.070313 1016.982812 C 1634.84375 1045.654687 1627.421875 1077.529687 1632.734375 1108.35 C 1636.992188 1134.365625 1648.125 1156.709375 1648.671875 1183.779687 C 1649.726563 1244.873437 1617.304688 1309.170312 1643.359375 1367.060937 Z M 1643.359375 1367.060937" transform="matrix(.1 0 0 -.1 0 386.21)" fill="#ef9e9e" stroke-width="5.313" stroke="#050505" stroke-miterlimit="10" />
  <path d="M 1518.515625 1444.092187 C 1503.085938 1457.959375 1485.039063 1468.545312 1471.71875 1483.975 C 1421.796875 1541.904687 1448.359375 1636.435937 1439.84375 1704.990625 C 1435.078125 1740.576562 1423.90625 1776.1625 1401.601563 1804.326562 C 1391.523438 1817.060937 1378.75 1828.232812 1363.359375 1832.998437 C 1349.53125 1837.25625 1335.195313 1836.201562 1320.859375 1833.545312 C 1234.804688 1818.6625 1165.742188 1754.9125 1109.414063 1688.50625 C 982.421875 1539.248437 890.507813 1357.490625 843.789063 1167.334375 C 816.132813 1055.225 805.507813 939.404687 797.539063 824.13125 C 790.625 727.959375 786.40625 629.639062 812.421875 536.670312 C 825.15625 492.060937 848.554688 445.85 891.5625 427.25625 C 925.585938 412.920312 963.867188 419.2875 999.960938 427.25625 C 1126.953125 455.928125 1249.6875 504.2875 1362.304688 570.146875 C 1440.390625 615.85 1504.140625 681.201562 1546.132813 761.435937 C 1562.03125 791.709375 1575.898438 823.584375 1581.171875 857.060937 C 1585.46875 884.678125 1584.375 912.334375 1582.773438 940.459375 C 1577.460938 1051.514062 1570.585938 1162.529687 1565.78125 1273.0375 C 1563.125 1338.935937 1573.203125 1394.170312 1518.515625 1444.092187 Z M 1518.515625 1444.092187" transform="matrix(.1 0 0 -.1 0 386.21)" fill="#c3cde6" stroke-width="5.313" stroke="#000" stroke-miterlimit="10" />
  <path d="M 827.8125 582.373437 C 834.726563 528.701562 851.210938 467.607812 901.132813 446.904687 C 926.132813 436.826562 954.804688 439.482812 981.914063 444.248437 C 1094.023438 463.896875 1211.40625 508.545312 1310.78125 564.326562 C 1343.164063 582.373437 1373.984375 603.076562 1404.804688 624.326562 C 1418.085938 633.389062 1430.820313 641.865625 1443.046875 652.490625 C 1456.875 664.717187 1468.554688 678.545312 1479.726563 692.88125 C 1536.015625 767.803125 1559.921875 856.00625 1563.632813 948.428125 C 1567.382813 1032.373437 1556.757813 1115.264062 1550.351563 1198.6625 C 1547.695313 1234.795312 1544.53125 1270.928125 1543.984375 1307.021875 C 1543.476563 1342.1 1546.132813 1380.342187 1527.539063 1411.709375 C 1503.59375 1452.1 1451.5625 1471.748437 1433.476563 1514.795312 C 1425 1533.935937 1425 1555.69375 1425 1576.94375 C 1425 1604.053125 1424.453125 1630.615625 1424.453125 1657.685937 C 1424.453125 1681.084375 1423.90625 1704.990625 1418.59375 1727.842187 C 1413.28125 1750.654687 1402.65625 1772.998437 1384.609375 1788.389062 C 1351.679688 1816.00625 1301.71875 1812.842187 1261.875 1795.810937 C 1190.15625 1765.5375 1140.78125 1699.678125 1094.53125 1636.435937 C 1031.875 1550.38125 974.492188 1464.834375 931.445313 1367.060937 C 890.507813 1272.490625 860.78125 1173.154687 843.242188 1071.709375 C 839.53125 1050.967187 836.328125 1030.264062 834.179688 1009.521875 C 816.679688 868.740625 810.3125 722.646875 827.8125 582.373437 Z M 827.8125 582.373437" transform="matrix(.1 0 0 -.1 0 386.21)" fill="#ef9e9e" stroke-width="5.313" stroke="#050505" stroke-miterlimit="10" />
  <path d="M 2412.109375 422.998437 C 2386.09375 425.654687 2349.960938 414.482812 2314.882813 422.451562 C 2267.617188 433.076562 2181.015625 453.271875 2137.421875 462.842187 C 2118.828125 467.1 2056.679688 476.670312 2046.601563 478.232812 C 1893.046875 495.771875 1803.28125 502.139062 1657.1875 506.94375 C 1509.453125 512.25625 1357.5 505.889062 1222.03125 478.779687 C 1156.71875 465.498437 1099.335938 439.482812 1037.695313 435.225 C 970.234375 430.420312 911.25 420.342187 875.117188 421.94375 C 850.664063 422.998437 813.476563 421.94375 780.546875 415.576562 C 781.601563 405.459375 781.601563 407.060937 783.710938 396.982812 C 784.257813 392.725 784.804688 378.389062 785.3125 374.639062 C 810.3125 379.44375 841.09375 379.44375 872.460938 382.607812 C 920.273438 387.4125 970.78125 394.834375 1042.460938 399.639062 C 1114.726563 403.857812 1155.117188 426.709375 1232.148438 438.935937 C 1345.3125 456.982812 1446.757813 466.553125 1559.414063 466.553125 C 1591.289063 466.553125 1623.164063 466.045312 1654.492188 464.951562 C 1805.390625 459.639062 1939.804688 452.764062 2103.4375 422.451562 C 2150.195313 413.975 2241.054688 398.0375 2287.265625 386.865625 C 2329.257813 376.7875 2378.632813 380.498437 2406.289063 377.842187 C 2443.984375 374.639062 2472.695313 373.076562 2500.3125 365.107812 L 2516.796875 405.459375 C 2482.773438 414.482812 2472.695313 417.139062 2412.109375 422.998437 Z M 2412.109375 422.998437" transform="matrix(.1 0 0 -.1 0 386.21)" fill="#ef9e9e" stroke-width="5.313" stroke="#050505" stroke-miterlimit="10" />
  <path d="M150.519531 243.070313C149.988281 243.070313 149.671875 243.976563 149.351563 244.664063 148.980469 245.570313 148.714844 246.527344 148.34375 247.484375 147.757813 248.972656 147.226563 250.460938 146.640625 251.894531 145.953125 253.753906 145.210938 256.144531 143.667969 257.523438 141.703125 259.226563 135.433594 256.355469 133.46875 254.710938 131.34375 252.902344 129.75 247.269531 129.058594 244.613281 128.15625 241.214844 128.15625 234.304688 128.15625 230.800781 128.15625 227.453125 128.6875 223.253906 129.535156 219.589844 129.90625 217.890625 131.289063 216.242188 131.234375 214.382813 131.183594 212.3125 130.386719 210.503906 129.640625 210.292969 129.269531 210.1875 130.066406 212.683594 129.855469 214.597656 129.695313 216.242188 128.578125 217.199219 128.367188 218.847656 128.101563 220.863281 127.675781 222.40625 126.984375 222.40625 126.453125 222.40625 125.550781 222.140625 125.019531 220.8125 124.648438 219.910156 125.445313 216.773438 125.074219 215.710938 124.328125 213.480469 122.789063 212.683594 122.046875 212.789063 120.824219 212.894531 123.480469 213.320313 123.851563 216.722656 123.957031 217.941406 123.054688 220.386719 123.691406 221.660156 124.382813 223.148438 125.179688 224.105469 125.445313 225.488281 126.242188 229.894531 125.339844 236.644531 125.339844 236.644531 124.328125 236.75 123.320313 233.828125 121.621094 230.691406 120.503906 228.726563 120.503906 225.488281 119.921875 221.980469 119.390625 218.898438 118.007813 215.976563 117.582031 216.402344 117.050781 216.933594 118.113281 219.269531 118.699219 221.925781 119.175781 224.210938 119.175781 227.347656 118.699219 228.089844 118.273438 228.726563 116.679688 226.070313 115.085938 225.007813 113.757813 224.105469 110.835938 223.839844 110.996094 224.476563 111.046875 224.796875 113.332031 225.378906 114.5 226.175781 115.882813 227.082031 116.945313 228.78125 117.53125 229.578125 119.070313 231.542969 121.355469 234.570313 123.054688 238.023438 123.90625 239.777344 126.5625 244.824219 125.921875 245.195313 125.445313 245.464844 121.089844 243.550781 119.601563 242.648438 117.902344 241.691406 114.5 241.054688 112.800781 238.238281 112.324219 237.492188 112.640625 234.839844 111.792969 233.5625 110.730469 231.96875 107.914063 230.800781 107.96875 231.757813 108.019531 232.128906 109.296875 232.605469 110.410156 234.253906 111.261719 235.476563 111.046875 237.8125 111.527344 239.089844 112.109375 240.734375 114.078125 241.480469 113.8125 241.902344 113.332031 242.648438 112.164063 243.496094 109.296875 243.445313 107.382813 243.390625 104.140625 242.117188 102.972656 242.539063 101.699219 243.019531 100.953125 245.253906 101.378906 245.570313 101.75 245.835938 101.699219 243.976563 103.34375 243.496094 104.992188 243.070313 108.710938 244.5625 109.5625 244.613281 112.269531 244.773438 115.140625 244.242188 116.574219 244.613281 119.125 245.253906 123.160156 247.429688 124.914063 249.34375 127.78125 252.476563 129.695313 254.28125 129.324219 254.867188 128.898438 255.453125 125.605469 255.132813 119.8125 255.1875 118.113281 255.1875 114.765625 255.132813 113.863281 253.59375 113.4375 252.902344 112.960938 250.722656 112.375 249.394531 111.578125 247.640625 107.59375 246.101563 107.753906 247.21875 107.808594 247.589844 110.410156 248.28125 111.261719 249.929688 112.269531 251.839844 112.589844 254.070313 112.535156 254.761719 112.484375 255.613281 108.765625 254.65625 107.859375 254.710938 106.640625 254.816406 104.300781 256.035156 102.972656 255.929688 101.378906 255.824219 98.140625 253.488281 97.976563 254.28125 97.765625 255.238281 100.6875 256.886719 102.390625 257.152344 103.929688 257.417969 107.328125 256.144531 107.96875 256.195313 110.78125 256.25 111.738281 257.046875 111.953125 257.898438 112.375 259.492188 109.984375 260.976563 107.648438 263.421875 105.257813 266.023438 101.910156 265.757813 102.335938 266.820313 102.601563 267.511719 106.265625 266.554688 108.765625 264.378906 111.101563 262.304688 112.324219 260.976563 115.828125 259.066406 117.636719 258.109375 121.9375 258.746094 127.515625 258.746094 132.882813 258.746094 138.25 260.023438 138.726563 262.199219 139.203125 264.324219 137.292969 277.128906 135.484375 279.148438 134 280.792969 129.695313 280.421875 126.984375 280.6875 125.019531 280.898438 124.222656 278.03125 123.746094 274.523438 123.585938 273.570313 123.851563 272.398438 123.796875 271.390625 123.746094 270.222656 122.578125 269.320313 122.894531 267.992188 123.265625 266.398438 124.859375 263.6875 124.171875 263.632813 123.320313 263.527344 121.78125 265.441406 121.40625 266.980469 120.875 269 121.671875 270.648438 121.832031 272.1875 121.9375 273.410156 121.355469 275.003906 121.566406 275.640625 122.152344 277.234375 115.140625 272.507813 111.898438 273.570313 109.507813 274.367188 109.03125 276.597656 107.382813 278.296875 106.746094 278.988281 104.886719 279.835938 104.515625 280.742188 103.824219 282.28125 103.929688 284.085938 104.355469 284.460938 104.9375 284.992188 104.832031 283.183594 105.894531 281.539063 106.425781 280.632813 107.808594 279.996094 108.65625 279.253906 110.199219 277.976563 111.101563 275.640625 112.484375 275.429688 114.660156 275.109375 121.9375 278.296875 122.523438 280.316406 123.160156 282.601563 118.113281 283.664063 113.4375 287.914063 112.589844 288.65625 111.632813 290.675781 110.675781 292.054688 109.453125 293.757813 105.894531 292.585938 105.894531 293.703125 105.894531 294.339844 110.835938 294.976563 112.109375 293.066406 112.640625 292.269531 113.332031 290.144531 114.34375 289.082031 115.511719 287.804688 117.210938 287.007813 117.796875 287.328125 118.167969 287.539063 117.421875 289.292969 117.316406 290.460938 117.210938 291.683594 117.902344 293.277344 117.742188 294.605469 117.582031 296.253906 114.660156 297.6875 115.296875 298.164063 116.359375 298.960938 119.335938 296.359375 119.496094 294.394531 119.601563 292.800781 118.804688 291.257813 118.964844 290.460938 119.601563 287.328125 121.355469 285.734375 123.480469 284.671875 127.144531 282.867188 133.734375 282.601563 135.21875 284.300781 135.964844 285.148438 130.96875 290.78125 127.09375 294.339844 124.4375 296.785156 114.660156 300.769531 113.4375 301.40625 111.84375 302.203125 110.199219 304.488281 108.234375 305.390625 106.109375 306.347656 102.390625 306.027344 102.335938 307.039063 102.335938 308.046875 107.808594 307.570313 110.464844 306.082031 112.164063 305.125 112.855469 303.53125 114.5 302.734375 116.148438 301.9375 118.75 301.992188 119.390625 302.628906 119.921875 303.210938 118.167969 306.453125 116.359375 309.960938 114.925781 312.777344 115.722656 314.902344 115.03125 317.453125 114.609375 319.046875 113.015625 320.800781 113.121094 322.183594 113.28125 325.582031 115.191406 330.042969 116.253906 329.992188 117.316406 329.9375 114.980469 326.113281 115.03125 322.449219 115.03125 320.851563 116.945313 319.3125 117.421875 317.132813 117.636719 316.175781 117.210938 312.9375 118.59375 310.226563 121.621094 304.277344 126.828125 296.359375 129.003906 296.785156 130.332031 297.050781 128.738281 299.917969 128.6875 301.195313 128.6875 302.148438 129.640625 304.011719 129.589844 305.074219 129.535156 307.199219 126.984375 310.171875 127.78125 310.121094 129.003906 310.066406 131.449219 306.878906 131.449219 304.167969 131.449219 302.628906 130.597656 302.042969 130.652344 300.289063 130.703125 298.75 132.882813 295.136719 133.679688 293.808594 134.421875 292.585938 136.601563 290.515625 137.398438 289.292969 138.78125 287.167969 139.734375 282.175781 140.425781 279.785156 141.222656 276.96875 141.753906 268.628906 143.347656 268.363281 144.570313 268.148438 145.261719 285.894531 144.144531 289.1875 143.402344 291.417969 142.285156 294.179688 139.3125 297.367188 138.035156 298.75 136.335938 299.226563 135.378906 300.554688 133.945313 302.574219 134.316406 306.667969 135.59375 307.25 136.335938 307.570313 135.433594 303.796875 136.601563 302.097656 137.34375 301.035156 139.683594 299.601563 140.425781 298.960938 142.234375 297.367188 143.507813 294.605469 144.09375 295.136719 145.421875 296.359375 137.292969 308.953125 135.859375 311.078125 134.53125 313.042969 134.6875 316.285156 133.203125 317.929688 130.8125 320.585938 125.921875 321.332031 126.878906 322.128906 127.890625 322.925781 132.9375 321.808594 135.007813 318.726563 136.761719 316.175781 137.078125 313.894531 137.929688 312.140625 139.203125 309.535156 145.3125 300.820313 146.429688 297.15625 149.300781 287.964844 147.757813 280.15625 147.863281 274.472656 147.917969 272.242188 148.289063 267.726563 148.875 265.546875 149.671875 262.570313 150.628906 259.648438 151.742188 256.78125 152.753906 254.28125 154.238281 252.425781 153.8125 249.609375 153.496094 247.589844 152.644531 244.664063 151.050781 243.230469 150.894531 243.179688 150.679688 243.070313 150.519531 243.070313zM167.257813 246.261719C168.214844 246.101563 169.597656 248.972656 170.179688 249.609375 171.03125 250.511719 171.984375 251.363281 172.835938 252.371094 174.75 254.601563 176.128906 254.65625 177.722656 255.398438 180.007813 256.515625 183.675781 254.867188 185.109375 252.796875 186.648438 250.566406 186.648438 244.878906 186.648438 242.222656 186.648438 238.820313 184.738281 232.660156 183.78125 229.363281 183.355469 227.878906 184.046875 225.113281 183.992188 222.777344 183.941406 220.226563 183.25 218.15625 184.207031 218.472656 184.628906 218.582031 185.269531 220.546875 185.269531 222.777344 185.269531 224.847656 184.628906 227.132813 185.109375 228.621094 185.691406 230.375 186.96875 234.039063 188.082031 233.828125 189.039063 233.667969 190.101563 229.152344 190.527344 227.398438 190.898438 225.859375 190.898438 221.128906 190.527344 217.519531 190.261719 214.914063 186.863281 213.425781 187.660156 212.949219 188.242188 212.578125 191.535156 214.914063 191.695313 217.359375 191.855469 219.800781 191.429688 222.722656 192.121094 223.363281 192.652344 223.785156 194.617188 222.832031 195.734375 221.609375 196.902344 220.226563 197.488281 217.996094 197.804688 218.632813 198.230469 219.429688 197.222656 221.394531 196.265625 222.511719 195.253906 223.679688 193.078125 224.957031 192.757813 225.804688 191.855469 228.035156 190.792969 231.4375 190.101563 235.101563 189.785156 236.964844 188.507813 241.53125 189.835938 242.0625 190.6875 242.433594 194.351563 239.617188 195.519531 238.449219 196.847656 237.121094 198.441406 237.492188 199.347656 234.464844 199.558594 233.667969 200.78125 230.320313 201.363281 228.992188 202.480469 226.550781 199.769531 223.945313 200.675781 223.574219 201.578125 223.253906 203.332031 227.347656 202.480469 229.632813 201.472656 232.394531 199.503906 235.316406 200.992188 235.527344 202.214844 235.6875 203.914063 235.050781 206.144531 235.101563 207.15625 235.101563 211.671875 236.273438 210.980469 236.964844 210.503906 237.441406 207.050781 236.21875 205.347656 236.324219 202.320313 236.484375 199.71875 238.609375 198.496094 239.300781 196.265625 240.523438 193.183594 243.070313 191.75 245.09375 190.6875 246.632813 188.507813 251.308594 189.199219 252.054688 189.941406 252.902344 192.492188 252.316406 197.699219 250.566406 199.292969 250.03125 201.949219 249.929688 203.542969 246.101563 203.863281 245.359375 203.382813 243.605469 203.648438 242.171875 203.96875 240.363281 206.570313 237.863281 207.15625 238.078125 208.164063 238.449219 204.871094 239.832031 204.925781 242.597656 204.976563 244.453125 204.710938 247.21875 204.925781 247.804688 205.191406 248.597656 208.484375 246.847656 209.335938 246.632813 210.554688 246.261719 212.363281 247.378906 214.007813 247.324219 216.238281 247.21875 218.894531 246.472656 218.472656 247.21875 218.3125 247.484375 215.710938 248.546875 213.796875 248.757813 212.042969 248.972656 210.34375 247.90625 209.652344 248.121094 206.996094 248.863281 206.359375 249.820313 206.304688 250.671875 206.199219 252.265625 211.40625 251.894531 214.222656 253.699219 217.195313 255.558594 219.214844 259.914063 217.726563 260.605469 217.726563 260.605469 215.972656 256.304688 213.160156 254.710938 210.875 253.382813 206.730469 253.699219 202.90625 252.796875 200.992188 252.316406 197.0625 254.019531 191.800781 255.398438 186.753906 256.726563 183.25 258.746094 182.132813 261.402344 181.125 263.847656 187.5 273.941406 189.675781 275.375 191.484375 276.542969 194.832031 275.90625 197.910156 275.480469 199.824219 275.269531 199.929688 273.515625 199.929688 270.433594 199.929688 268.789063 198.390625 265.386719 198.335938 263.050781 198.285156 260.976563 199.984375 257.789063 200.78125 257.472656 200.78125 257.472656 199.824219 260.871094 200.144531 262.996094 200.460938 265.386719 201.84375 268.46875 201.738281 269.636719 201.628906 271.285156 206.941406 265.121094 210.289063 265.335938 212.785156 265.492188 214.007813 269.53125 215.601563 271.070313 217.410156 272.824219 220.863281 274.789063 220.863281 274.789063 220.332031 275.640625 216.613281 274.101563 214.644531 272.292969 212.785156 270.539063 211.511719 267.085938 209.8125 267.246094 207.6875 267.460938 202.054688 272.292969 202.054688 274.3125 202.054688 276.648438 207.421875 275.90625 212.945313 278.773438 213.847656 279.253906 214.699219 281.429688 215.921875 282.335938 218.363281 284.195313 224.105469 282.070313 223.359375 283.398438 223.039063 283.980469 217.464844 285.839844 215.070313 283.714844 213.53125 282.335938 210.925781 277.871094 208.003906 278.773438 207.582031 278.882813 209.441406 281.273438 209.8125 282.335938 210.238281 283.449219 209.972656 284.992188 210.503906 286.160156 211.566406 288.550781 217.035156 289.613281 216.398438 290.089844 215.550781 290.675781 209.8125 289.613281 208.589844 286.902344 207.898438 285.46875 208.21875 283.078125 207.847656 282.386719 206.410156 279.570313 205.03125 278.402344 202.320313 278.722656 198.335938 279.148438 192.175781 279.304688 191.164063 281.273438 190.6875 282.226563 196.847656 286.320313 201.417969 288.710938 202.957031 289.507813 206.730469 290.460938 210.238281 291.207031 213.742188 291.949219 218.472656 292.375 219.109375 292.535156 221.074219 292.960938 222.085938 294.339844 223.730469 295.03125 225.539063 295.773438 228.726563 292.960938 228.671875 293.808594 228.621094 295.03125 225.378906 297.527344 223.464844 297.050781 222.351563 296.730469 219.640625 294.554688 218.578125 294.289063 214.859375 293.332031 211.617188 294.023438 210.769531 294.605469 210.078125 295.136719 218.738281 303.265625 220.382813 307.199219 221.554688 310.066406 222.03125 311.289063 223.519531 312.246094 224.6875 313.042969 226.546875 313.894531 227.238281 316.175781 227.929688 318.570313 227.664063 319.898438 229.203125 320.90625 230.054688 321.4375 233.085938 322.660156 234.304688 323.617188 236.589844 325.316406 239.882813 327.8125 238.503906 328.183594 237.972656 328.34375 235.847656 326.539063 234.199219 325.371094 231.597656 323.511719 227.449219 321.863281 227.1875 322.074219 226.761719 322.394531 226.546875 323.402344 226.230469 324.464844 225.273438 328.078125 227.769531 330.523438 226.8125 330.523438 225.753906 330.574219 224.636719 326.589844 224.953125 324.945313 225.433594 322.554688 226.652344 319.578125 225.058594 315.699219 224.316406 313.894531 222.03125 314.160156 222.03125 314.636719 222.03125 315.167969 221.074219 316.070313 220.332031 317.878906 220.066406 318.570313 219.90625 320.90625 219.589844 321.542969 218.949219 322.660156 216.453125 324.730469 215.867188 324.042969 215.441406 323.5625 217.675781 322.339844 218.207031 320.585938 218.421875 319.949219 218.578125 317.878906 218.84375 317.132813 219.375 315.699219 220.332031 315.007813 219.851563 312.882813 219.480469 311.128906 218.421875 309.109375 217.144531 306.613281 215.761719 303.902344 200.886719 289.878906 199.1875 290.570313 197.964844 291.046875 199.769531 293.492188 201.257813 296.359375 202.585938 298.960938 199.878906 304.167969 198.707031 304.0625 198.019531 303.957031 200.992188 301.195313 199.613281 296.679688 199.1875 295.242188 195.839844 290.835938 194.722656 289.824219 193.714844 288.867188 191.484375 287.488281 190.421875 286.53125 188.5625 284.882813 186.382813 280.421875 185.109375 278.351563 184.363281 277.128906 179.957031 271.601563 175.175781 266.183594 172.621094 263.316406 170.179688 261.457031 168.054688 259.117188 167.097656 258.054688 166.195313 256.886719 165.289063 255.71875 164.707031 254.976563 163.539063 254.230469 163.539063 253.222656 163.539063 252.851563 163.644531 252.425781 163.753906 252.054688 164.335938 250.085938 165.078125 248.015625 166.621094 246.6875 166.832031 246.421875 167.046875 246.3125 167.257813 246.261719zM167.257813 246.261719" fill="#d87d7d" />
  <path d="M 1905.820313 1639.092187 C 1907.382813 1579.053125 1879.257813 1518.50625 1831.953125 1481.865625" transform="matrix(.1 0 0 -.1 0 386.21)" fill="none" stroke-width="10.626" stroke="#24a4d1" stroke-miterlimit="10" />
  <path d="M 186.117188 225.753906 L 186.863281 226.441406 L 190.472656 222.671875 L 193.980469 226.601563 L 194.777344 225.859375 L 190.527344 221.128906 Z M 186.117188 225.753906" fill="#24a4d1" />
  <path d="M 2093.359375 1244.365625 C 2041.796875 1198.6625 1967.96875 1179.014062 1900.507813 1193.896875" transform="matrix(.1 0 0 -.1 0 386.21)" fill="none" stroke-width="10.626" stroke="#24a4d1" stroke-miterlimit="10" />
  <path d="M 203.808594 260.605469 L 203.753906 261.667969 L 208.960938 261.988281 L 208.269531 267.140625 L 209.335938 267.300781 L 210.183594 260.976563 Z M 203.808594 260.605469" fill="#24a4d1" />
  <path d="M 2378.632813 1775.107812 C 2353.125 1610.967187 2225.625 1625.303125 2175.15625 1621.045312" transform="matrix(.1 0 0 -.1 0 386.21)" fill="none" stroke-width="10.626" stroke="#000" stroke-miterlimit="10" />
  <path d="M 232.816406 210.558594 L 233.347656 211.460938 L 237.8125 208.753906 L 240.203125 213.375 L 241.160156 212.894531 L 238.238281 207.265625 Z M 232.816406 210.558594" />
  <path d="M 924.53125 1605.107812 C 874.0625 1609.365625 746.015625 1595.029687 721.054688 1759.170312" transform="matrix(.1 0 0 -.1 0 386.21)" fill="none" stroke-width="10.626" stroke="#000" stroke-miterlimit="10" />
  <path d="M 71.730469 208.859375 L 68.808594 214.542969 L 69.765625 215.019531 L 72.15625 210.398438 L 76.621094 213.109375 L 77.152344 212.207031 Z M 71.730469 208.859375" />
  <path d="M 2212.34375 821.475 C 2129.453125 825.732812 2048.710938 868.232812 1999.84375 934.639062" transform="matrix(.1 0 0 -.1 0 386.21)" fill="none" stroke-width="10.626" stroke="#24a4d1" stroke-miterlimit="10" />
  <path d="M 218.101563 299.386719 L 217.304688 300.132813 L 220.863281 304.011719 L 216.71875 307.25 L 217.410156 308.046875 L 222.402344 304.117188 Z M 218.101563 299.386719" fill="#24a4d1" />
  <g clip-path="url(#svg369186523031tikz_00001b)">
    <path d="M 1597.148438 206.7875 C 1597.65625 272.139062 1597.148438 336.94375 1597.148438 425.107812" transform="matrix(.1 0 0 -.1 0 386.21)" fill="none" stroke-width="10.626" stroke="#000" stroke-miterlimit="10" />
  </g>
  <path d="M 164.230469 362.875 L 163.484375 362.183594 L 159.660156 365.480469 L 156.363281 361.652344 L 155.566406 362.292969 L 159.554688 366.859375 Z M 164.230469 362.875" />
  <path d="M 1029.21875 690.771875 C 1100.9375 708.81875 1164.6875 758.232812 1199.726563 823.076562" transform="matrix(.1 0 0 -.1 0 386.21)" fill="none" stroke-width="10.626" stroke="#24a4d1" stroke-miterlimit="10" />
  <path d="M 107.488281 320.320313 L 107.96875 319.367188 L 103.289063 316.972656 L 106 312.511719 L 105.097656 311.925781 L 101.804688 317.398438 Z M 107.488281 320.320313" fill="#24a4d1" />
  <path d="M 1066.914063 1045.146875 C 1132.8125 1050.967187 1197.070313 1073.81875 1251.796875 1111.553125" transform="matrix(.1 0 0 -.1 0 386.21)" fill="none" stroke-width="10.626" stroke="#24a4d1" stroke-miterlimit="10" />
  <path d="M 110.675781 285.574219 L 111.3125 284.726563 L 107.0625 281.644531 L 110.464844 277.660156 L 109.667969 276.96875 L 105.523438 281.804688 Z M 110.675781 285.574219" fill="#24a4d1" />
  <path d="M 1202.382813 1544.014062 C 1200.78125 1479.717187 1247.03125 1422.842187 1292.1875 1375.06875" transform="matrix(.1 0 0 -.1 0 386.21)" fill="none" stroke-width="10.626" stroke="#24a4d1" stroke-miterlimit="10" />
  <path d="M 116.148438 235.476563 L 116.945313 236.164063 L 120.398438 232.179688 L 124.117188 235.898438 L 124.859375 235.15625 L 120.34375 230.640625 Z M 116.148438 235.476563" fill="#24a4d1" />
  <path d="M 1345.820313 1264.521875 C 1375.585938 1255.498437 1410.117188 1266.123437 1434.53125 1285.264062 C 1461.09375 1305.967187 1478.632813 1335.732812 1494.609375 1365.498437" transform="matrix(.1 0 0 -.1 0 386.21)" fill="none" stroke-width="10.626" stroke="#24a4d1" stroke-miterlimit="10" />
  <path d="M 137.238281 264.484375 L 138.140625 263.898438 L 135.0625 259.648438 L 139.523438 256.886719 L 138.9375 255.984375 L 133.519531 259.332031 Z M 137.238281 264.484375" fill="#24a4d1" />
  <path d="M 1803.28125 1287.920312 C 1752.8125 1288.467187 1703.398438 1317.139062 1678.4375 1361.240625" transform="matrix(.1 0 0 -.1 0 386.21)" fill="none" stroke-width="10.626" stroke="#24a4d1" stroke-miterlimit="10" />
  <path d="M 177.140625 252.691406 L 176.34375 253.433594 L 179.957031 257.257813 L 175.863281 260.554688 L 176.554688 261.402344 L 181.496094 257.363281 Z M 177.140625 252.691406" fill="#24a4d1" />
  <path d="M 1578.554688 1566.31875 C 1581.171875 1614.13125 1582.265625 1661.435937 1580.664063 1708.701562" transform="matrix(.1 0 0 -.1 0 386.21)" fill="none" stroke-width="10.626" stroke="#24a4d1" stroke-miterlimit="10" />
  <path d="M 162.316406 226.441406 L 161.628906 225.644531 L 157.746094 229.152344 L 154.507813 225.007813 L 153.710938 225.644531 L 157.589844 230.691406 Z M 162.316406 226.441406" fill="#24a4d1" />
  <path d="M 1548.789063 1853.740625 C 1531.796875 1963.154687 1550.898438 2077.959375 1602.421875 2175.69375" transform="matrix(.1 0 0 -.1 0 386.21)" fill="none" stroke-width="10.626" stroke="#24a4d1" stroke-miterlimit="10" />
  <path d="M 158.757813 196.746094 L 157.90625 196.109375 L 154.878906 200.410156 L 150.839844 197.066406 L 150.148438 197.914063 L 155.089844 201.953125 Z M 158.757813 196.746094" fill="#24a4d1" />
  <path d="M 1549.84375 2479.6 C 1532.304688 2561.396875 1453.125 2626.748437 1369.21875 2626.748437" transform="matrix(.1 0 0 -.1 0 386.21)" fill="none" stroke-width="10.626" stroke="#24a4d1" stroke-miterlimit="10" />
  <path d="M 158.171875 133.734375 L 157.269531 133.203125 L 154.769531 137.878906 L 150.359375 135.0625 L 149.777344 135.96875 L 155.195313 139.367188 Z M 158.171875 133.734375" fill="#24a4d1" />
  <path d="M 1187.5 2658.623437 C 1122.695313 2672.4125 1051.523438 2657.56875 998.398438 2618.232812" transform="matrix(.1 0 0 -.1 0 386.21)" fill="none" stroke-width="10.626" stroke="#24a4d1" stroke-miterlimit="10" />
  <path d="M 115.988281 115.515625 L 115.191406 116.152344 L 118.328125 120.347656 L 113.917969 123.21875 L 114.5 124.066406 L 119.867188 120.613281 Z M 115.988281 115.515625" fill="#24a4d1" />
  <path d="M 882.578125 2468.428125 C 870.859375 2434.44375 840.585938 2408.389062 806.5625 2396.1625 C 770.429688 2383.428125 731.132813 2383.975 693.398438 2389.795312" transform="matrix(.1 0 0 -.1 0 386.21)" fill="none" stroke-width="10.626" stroke="#24a4d1" stroke-miterlimit="10" />
  <path d="M 82.730469 140.800781 L 83.15625 141.757813 L 87.9375 139.6875 L 89.691406 144.625 L 90.699219 144.253906 L 88.574219 138.25 Z M 82.730469 140.800781" fill="#24a4d1" />
  <path d="M133.488281 23.246094C133.488281 24.40625 133.367188 24.605469 132.15625 24.605469L132.15625 25.011719 136.03125 25.011719 136.03125 24.605469C134.832031 24.605469 134.714844 24.40625 134.714844 23.246094L134.714844 17.949219C134.714844 16.902344 134.753906 16.578125 136.03125 16.578125L136.03125 16.175781 132.15625 16.175781 132.15625 16.578125C133.433594 16.578125 133.488281 16.902344 133.488281 17.949219L133.488281 23.246094M142.96875 20.882813C142.96875 19.335938 142.390625 18.488281 141.167969 18.488281 140.320313 18.488281 139.726563 18.972656 139.003906 19.617188L138.949219 19.617188 138.960938 18.527344 138.652344 18.527344 136.945313 18.917969 136.945313 19.308594C136.945313 19.308594 137.078125 19.28125 137.304688 19.28125 137.671875 19.28125 137.871094 19.386719 137.871094 19.871094L137.871094 23.652344C137.871094 24.40625 137.832031 24.632813 136.929688 24.632813L136.929688 25.011719 140.007813 25.011719 140.007813 24.632813C139.042969 24.632813 138.988281 24.40625 138.988281 23.652344L138.988281 20.195313C139.390625 19.832031 139.890625 19.347656 140.617188 19.347656 141.21875 19.347656 141.851563 19.605469 141.851563 21.21875L141.851563 23.652344C141.851563 24.40625 141.8125 24.632813 140.859375 24.632813L140.859375 25.011719 143.964844 25.011719 143.964844 24.632813C143.0625 24.632813 142.96875 24.40625 142.96875 23.652344L142.96875 20.882813M144.726563 22.804688L144.765625 25.117188 145.046875 25.117188 145.328125 24.808594 145.355469 24.808594C145.707031 24.957031 146.109375 25.15625 146.890625 25.15625 148.101563 25.15625 149.148438 24.675781 149.148438 23.410156 149.148438 22.414063 148.492188 21.914063 147.265625 21.269531 146.136719 20.691406 145.691406 20.355469 145.691406 19.832031 145.691406 19.226563 146.164063 18.945313 146.78125 18.945313 147.601563 18.945313 148.101563 19.335938 148.394531 20.613281L148.757813 20.613281 148.71875 18.554688 148.449219 18.554688 148.222656 18.835938 148.207031 18.835938C147.871094 18.675781 147.46875 18.488281 146.796875 18.488281 145.640625 18.488281 144.738281 19.078125 144.738281 20.183594 144.738281 21.175781 145.289063 21.648438 146.511719 22.265625 147.765625 22.886719 148.019531 23.140625 148.019531 23.773438 148.019531 24.40625 147.535156 24.660156 146.863281 24.660156 145.867188 24.660156 145.355469 24.191406 145.074219 22.804688L144.726563 22.804688M151.867188 18.527344L151.53125 18.527344 149.835938 18.902344 149.835938 19.292969C149.835938 19.292969 150.09375 19.269531 150.265625 19.269531 150.710938 19.269531 150.777344 19.441406 150.777344 19.953125L150.777344 26.609375C150.777344 27.363281 150.644531 27.59375 149.796875 27.59375L149.796875 27.96875 153.199219 27.96875 153.199219 27.578125C152.148438 27.578125 151.894531 27.402344 151.894531 26.53125L151.894531 24.769531 151.949219 24.769531C152.339844 25.035156 152.796875 25.144531 153.304688 25.144531 154.921875 25.144531 156.253906 23.785156 156.253906 21.5 156.253906 19.738281 155.324219 18.488281 153.992188 18.488281 153.199219 18.488281 152.554688 18.902344 151.90625 19.65625L151.867188 19.65625zM151.894531 20.222656C152.148438 19.886719 152.726563 19.402344 153.441406 19.402344 154.4375 19.402344 155.027344 20.183594 155.027344 21.878906 155.027344 23.746094 154.3125 24.617188 153.371094 24.617188 152.621094 24.617188 152.148438 24.015625 151.894531 23.730469L151.894531 20.222656M158.648438 15.691406C158.179688 15.691406 157.882813 16.039063 157.882813 16.441406 157.882813 16.859375 158.191406 17.210938 158.648438 17.210938 159.121094 17.210938 159.417969 16.859375 159.417969 16.441406 159.417969 16.039063 159.121094 15.691406 158.648438 15.691406zM160.15625 24.632813C159.253906 24.632813 159.1875 24.433594 159.1875 23.652344L159.1875 18.527344 158.839844 18.527344 157.144531 18.902344 157.144531 19.292969C157.144531 19.292969 157.292969 19.269531 157.480469 19.269531 157.871094 19.269531 158.070313 19.320313 158.070313 19.898438L158.070313 23.652344C158.070313 24.417969 158.03125 24.632813 157.128906 24.632813L157.128906 25.011719 160.15625 25.011719 160.15625 24.632813M163.0625 18.527344L162.738281 18.527344 161.070313 18.933594 161.070313 19.308594C161.070313 19.308594 161.21875 19.28125 161.488281 19.28125 161.972656 19.28125 161.972656 19.523438 161.972656 20.007813L161.972656 23.703125C161.972656 24.457031 161.878906 24.617188 160.992188 24.617188L160.992188 25.011719 164.351563 25.011719 164.351563 24.617188C163.34375 24.617188 163.089844 24.484375 163.089844 23.636719L163.089844 20.570313C163.410156 20.03125 163.839844 19.46875 164.148438 19.46875 164.3125 19.46875 164.582031 19.925781 165.023438 19.925781 165.320313 19.925781 165.617188 19.710938 165.617188 19.199219 165.617188 18.742188 165.359375 18.445313 164.835938 18.445313 164.191406 18.445313 163.789063 18.917969 163.101563 19.914063L163.0625 19.914063 163.0625 18.527344M169.640625 24.175781C169.722656 24.769531 169.859375 25.078125 170.449219 25.078125 171.132813 25.078125 171.457031 24.792969 171.902344 24.148438L171.699219 23.933594C171.511719 24.136719 171.324219 24.269531 171.066406 24.269531 170.785156 24.269531 170.664063 24.164063 170.664063 23.613281L170.664063 20.558594C170.664063 19.160156 170.113281 18.488281 168.648438 18.488281 167.179688 18.488281 166.28125 19.214844 166.28125 19.964844 166.28125 20.410156 166.578125 20.613281 166.84375 20.613281 167.222656 20.613281 167.4375 20.410156 167.4375 19.992188 167.4375 19.1875 167.570313 18.902344 168.339844 18.902344 169.144531 18.902344 169.546875 19.347656 169.546875 20.519531L169.546875 21.109375C168.390625 21.472656 166.011719 21.820313 166.011719 23.597656 166.011719 24.457031 166.578125 25.105469 167.609375 25.105469 168.472656 25.105469 168.957031 24.726563 169.589844 24.175781zM169.546875 23.773438C169.089844 24.148438 168.605469 24.363281 168.164063 24.363281 167.585938 24.363281 167.195313 23.945313 167.195313 23.277344 167.195313 22.226563 168.324219 21.863281 169.546875 21.554688L169.546875 23.773438M175.839844 23.800781C175.503906 24.175781 175.328125 24.351563 174.898438 24.351563 174.375 24.351563 174.253906 24.027344 174.253906 23.074219L174.253906 19.214844 175.773438 19.214844 175.773438 18.648438 174.253906 18.648438 174.265625 16.808594 173.917969 16.808594C173.433594 17.949219 173.03125 18.515625 172.398438 18.902344L172.398438 19.214844 173.136719 19.214844 173.136719 23.449219C173.136719 24.660156 173.527344 25.144531 174.429688 25.144531 175.289063 25.144531 175.570313 24.742188 176.09375 24.015625L175.839844 23.800781M178.148438 15.691406C177.679688 15.691406 177.382813 16.039063 177.382813 16.441406 177.382813 16.859375 177.691406 17.210938 178.148438 17.210938 178.621094 17.210938 178.917969 16.859375 178.917969 16.441406 178.917969 16.039063 178.621094 15.691406 178.148438 15.691406zM179.65625 24.632813C178.753906 24.632813 178.6875 24.433594 178.6875 23.652344L178.6875 18.527344 178.339844 18.527344 176.644531 18.902344 176.644531 19.292969C176.644531 19.292969 176.792969 19.269531 176.980469 19.269531 177.371094 19.269531 177.570313 19.320313 177.570313 19.898438L177.570313 23.652344C177.570313 24.417969 177.53125 24.632813 176.628906 24.632813L176.628906 25.011719 179.65625 25.011719 179.65625 24.632813M183.46875 18.488281C181.65625 18.488281 180.457031 19.804688 180.457031 21.753906 180.457031 23.933594 181.589844 25.144531 183.46875 25.144531 185.21875 25.144531 186.453125 23.960938 186.453125 21.703125 186.453125 19.710938 185.3125 18.488281 183.46875 18.488281zM183.414063 19C184.613281 19 185.21875 20.113281 185.21875 21.769531 185.21875 23.960938 184.628906 24.605469 183.523438 24.605469 182.367188 24.617188 181.707031 23.71875 181.707031 21.578125 181.707031 19.859375 182.394531 19 183.414063 19M193.367188 20.882813C193.367188 19.335938 192.789063 18.488281 191.566406 18.488281 190.71875 18.488281 190.128906 18.972656 189.402344 19.617188L189.347656 19.617188 189.359375 18.527344 189.050781 18.527344 187.34375 18.917969 187.34375 19.308594C187.34375 19.308594 187.476563 19.28125 187.707031 19.28125 188.070313 19.28125 188.273438 19.386719 188.273438 19.871094L188.273438 23.652344C188.273438 24.40625 188.230469 24.632813 187.328125 24.632813L187.328125 25.011719 190.410156 25.011719 190.410156 24.632813C189.441406 24.632813 189.386719 24.40625 189.386719 23.652344L189.386719 20.195313C189.792969 19.832031 190.289063 19.347656 191.015625 19.347656 191.621094 19.347656 192.253906 19.605469 192.253906 21.21875L192.253906 23.652344C192.253906 24.40625 192.214844 24.632813 191.257813 24.632813L191.257813 25.011719 194.363281 25.011719 194.363281 24.632813C193.464844 24.632813 193.367188 24.40625 193.367188 23.652344L193.367188 20.882813" />
</svg>